<mxfile host="drawio-plugin" modified="2021-07-29T10:04:36.119Z" agent="5.0 (Windows NT 6.2; Win64; x64) AppleWebKit/537.36 (KHTML, like Gecko) Chrome/89.0.4389.90 Safari/537.36" etag="vnj4LJaK2VPQxJpRW5io" version="14.7.4" type="embed" pages="2"><diagram id="HGTQmG3DgcUcSQ1oNidL" name="Page-1"><mxGraphModel dx="1133" dy="713" grid="1" gridSize="10" guides="1" tooltips="1" connect="1" arrows="1" fold="1" page="1" pageScale="1" pageWidth="1700" pageHeight="1100" math="0" shadow="0"><root><mxCell id="0"/><mxCell id="1" parent="0"/><mxCell id="SCQiJlnIaPqGDtUvYULp-1" value="&lt;&lt;Abstract&gt;&gt;&#10;AbstractColumnData" style="swimlane;fontStyle=0;childLayout=stackLayout;horizontal=1;startSize=30;fillColor=none;horizontalStack=0;resizeParent=1;resizeParentMax=0;resizeLast=0;collapsible=1;marginBottom=0;" parent="1" vertex="1"><mxGeometry x="83" y="50" width="230" height="166" as="geometry"/></mxCell><mxCell id="SCQiJlnIaPqGDtUvYULp-2" value="+ getValue(String): String" style="text;strokeColor=none;fillColor=none;align=left;verticalAlign=top;spacingLeft=4;spacingRight=4;overflow=hidden;rotatable=0;points=[[0,0.5],[1,0.5]];portConstraint=eastwest;" parent="SCQiJlnIaPqGDtUvYULp-1" vertex="1"><mxGeometry y="30" width="230" height="26" as="geometry"/></mxCell><mxCell id="SCQiJlnIaPqGDtUvYULp-3" value="+ getRow(): String[]" style="text;strokeColor=none;fillColor=none;align=left;verticalAlign=top;spacingLeft=4;spacingRight=4;overflow=hidden;rotatable=0;points=[[0,0.5],[1,0.5]];portConstraint=eastwest;" parent="SCQiJlnIaPqGDtUvYULp-1" vertex="1"><mxGeometry y="56" width="230" height="26" as="geometry"/></mxCell><mxCell id="SCQiJlnIaPqGDtUvYULp-12" value="+ getColumns(): String[]" style="text;strokeColor=none;fillColor=none;align=left;verticalAlign=top;spacingLeft=4;spacingRight=4;overflow=hidden;rotatable=0;points=[[0,0.5],[1,0.5]];portConstraint=eastwest;" parent="SCQiJlnIaPqGDtUvYULp-1" vertex="1"><mxGeometry y="82" width="230" height="28" as="geometry"/></mxCell><mxCell id="SCQiJlnIaPqGDtUvYULp-11" value="-  getCheckedFields(): ArrayList&lt;Field&gt;" style="text;strokeColor=none;fillColor=none;align=left;verticalAlign=top;spacingLeft=4;spacingRight=4;overflow=hidden;rotatable=0;points=[[0,0.5],[1,0.5]];portConstraint=eastwest;" parent="SCQiJlnIaPqGDtUvYULp-1" vertex="1"><mxGeometry y="110" width="230" height="28" as="geometry"/></mxCell><mxCell id="SCQiJlnIaPqGDtUvYULp-4" value="- getFieldValue(Field): String" style="text;strokeColor=none;fillColor=none;align=left;verticalAlign=top;spacingLeft=4;spacingRight=4;overflow=hidden;rotatable=0;points=[[0,0.5],[1,0.5]];portConstraint=eastwest;" parent="SCQiJlnIaPqGDtUvYULp-1" vertex="1"><mxGeometry y="138" width="230" height="28" as="geometry"/></mxCell><mxCell id="SCQiJlnIaPqGDtUvYULp-14" value="CD" style="swimlane;fontStyle=1;align=center;verticalAlign=top;childLayout=stackLayout;horizontal=1;startSize=26;horizontalStack=0;resizeParent=1;resizeParentMax=0;resizeLast=0;collapsible=1;marginBottom=0;" parent="1" vertex="1"><mxGeometry x="110" y="320" width="160" height="216" as="geometry"/></mxCell><mxCell id="SCQiJlnIaPqGDtUvYULp-21" value="- title: String" style="text;strokeColor=none;fillColor=none;align=left;verticalAlign=top;spacingLeft=4;spacingRight=4;overflow=hidden;rotatable=0;points=[[0,0.5],[1,0.5]];portConstraint=eastwest;" parent="SCQiJlnIaPqGDtUvYULp-14" vertex="1"><mxGeometry y="26" width="160" height="26" as="geometry"/></mxCell><mxCell id="SCQiJlnIaPqGDtUvYULp-20" value="- artist: String" style="text;strokeColor=none;fillColor=none;align=left;verticalAlign=top;spacingLeft=4;spacingRight=4;overflow=hidden;rotatable=0;points=[[0,0.5],[1,0.5]];portConstraint=eastwest;" parent="SCQiJlnIaPqGDtUvYULp-14" vertex="1"><mxGeometry y="52" width="160" height="26" as="geometry"/></mxCell><mxCell id="SCQiJlnIaPqGDtUvYULp-19" value="- country: String" style="text;strokeColor=none;fillColor=none;align=left;verticalAlign=top;spacingLeft=4;spacingRight=4;overflow=hidden;rotatable=0;points=[[0,0.5],[1,0.5]];portConstraint=eastwest;" parent="SCQiJlnIaPqGDtUvYULp-14" vertex="1"><mxGeometry y="78" width="160" height="26" as="geometry"/></mxCell><mxCell id="SCQiJlnIaPqGDtUvYULp-22" value="- company: String" style="text;strokeColor=none;fillColor=none;align=left;verticalAlign=top;spacingLeft=4;spacingRight=4;overflow=hidden;rotatable=0;points=[[0,0.5],[1,0.5]];portConstraint=eastwest;" parent="SCQiJlnIaPqGDtUvYULp-14" vertex="1"><mxGeometry y="104" width="160" height="26" as="geometry"/></mxCell><mxCell id="SCQiJlnIaPqGDtUvYULp-18" value="- price: String" style="text;strokeColor=none;fillColor=none;align=left;verticalAlign=top;spacingLeft=4;spacingRight=4;overflow=hidden;rotatable=0;points=[[0,0.5],[1,0.5]];portConstraint=eastwest;" parent="SCQiJlnIaPqGDtUvYULp-14" vertex="1"><mxGeometry y="130" width="160" height="26" as="geometry"/></mxCell><mxCell id="SCQiJlnIaPqGDtUvYULp-15" value="- year: LocalDate" style="text;strokeColor=none;fillColor=none;align=left;verticalAlign=top;spacingLeft=4;spacingRight=4;overflow=hidden;rotatable=0;points=[[0,0.5],[1,0.5]];portConstraint=eastwest;" parent="SCQiJlnIaPqGDtUvYULp-14" vertex="1"><mxGeometry y="156" width="160" height="26" as="geometry"/></mxCell><mxCell id="SCQiJlnIaPqGDtUvYULp-16" value="" style="line;strokeWidth=1;fillColor=none;align=left;verticalAlign=middle;spacingTop=-1;spacingLeft=3;spacingRight=3;rotatable=0;labelPosition=right;points=[];portConstraint=eastwest;" parent="SCQiJlnIaPqGDtUvYULp-14" vertex="1"><mxGeometry y="182" width="160" height="8" as="geometry"/></mxCell><mxCell id="SCQiJlnIaPqGDtUvYULp-17" value="+ toString(): String" style="text;strokeColor=none;fillColor=none;align=left;verticalAlign=top;spacingLeft=4;spacingRight=4;overflow=hidden;rotatable=0;points=[[0,0.5],[1,0.5]];portConstraint=eastwest;" parent="SCQiJlnIaPqGDtUvYULp-14" vertex="1"><mxGeometry y="190" width="160" height="26" as="geometry"/></mxCell><mxCell id="SCQiJlnIaPqGDtUvYULp-34" value="" style="html=1;verticalAlign=bottom;endArrow=block;exitX=0.5;exitY=0;exitDx=0;exitDy=0;entryX=0.465;entryY=1;entryDx=0;entryDy=0;entryPerimeter=0;" parent="1" source="SCQiJlnIaPqGDtUvYULp-14" target="SCQiJlnIaPqGDtUvYULp-4" edge="1"><mxGeometry width="80" relative="1" as="geometry"><mxPoint x="-40" y="100" as="sourcePoint"/><mxPoint x="40" y="100" as="targetPoint"/></mxGeometry></mxCell><mxCell id="SCQiJlnIaPqGDtUvYULp-35" value="&lt;&lt;Interface&gt;&gt;&#10;Parser" style="swimlane;fontStyle=0;childLayout=stackLayout;horizontal=1;startSize=30;fillColor=none;horizontalStack=0;resizeParent=1;resizeParentMax=0;resizeLast=0;collapsible=1;marginBottom=0;" parent="1" vertex="1"><mxGeometry x="390" y="50" width="270" height="56" as="geometry"/></mxCell><mxCell id="SCQiJlnIaPqGDtUvYULp-36" value="+ append(): List&lt;? extends AbstractColumnData&gt;" style="text;strokeColor=none;fillColor=none;align=left;verticalAlign=top;spacingLeft=4;spacingRight=4;overflow=hidden;rotatable=0;points=[[0,0.5],[1,0.5]];portConstraint=eastwest;" parent="SCQiJlnIaPqGDtUvYULp-35" vertex="1"><mxGeometry y="30" width="270" height="26" as="geometry"/></mxCell><mxCell id="SCQiJlnIaPqGDtUvYULp-39" value="" style="endArrow=block;dashed=1;endFill=0;endSize=12;html=1;exitX=0.481;exitY=1.077;exitDx=0;exitDy=0;exitPerimeter=0;" parent="1" source="SCQiJlnIaPqGDtUvYULp-36" target="SCQiJlnIaPqGDtUvYULp-40" edge="1"><mxGeometry width="160" relative="1" as="geometry"><mxPoint x="510" y="250" as="sourcePoint"/><mxPoint x="520" y="210" as="targetPoint"/></mxGeometry></mxCell><mxCell id="SCQiJlnIaPqGDtUvYULp-40" value="XMLParserCD" style="swimlane;fontStyle=1;align=center;verticalAlign=top;childLayout=stackLayout;horizontal=1;startSize=26;horizontalStack=0;resizeParent=1;resizeParentMax=0;resizeLast=0;collapsible=1;marginBottom=0;" parent="1" vertex="1"><mxGeometry x="440" y="160" width="160" height="86" as="geometry"/></mxCell><mxCell id="SCQiJlnIaPqGDtUvYULp-41" value="- filepath: String" style="text;strokeColor=none;fillColor=none;align=left;verticalAlign=top;spacingLeft=4;spacingRight=4;overflow=hidden;rotatable=0;points=[[0,0.5],[1,0.5]];portConstraint=eastwest;" parent="SCQiJlnIaPqGDtUvYULp-40" vertex="1"><mxGeometry y="26" width="160" height="26" as="geometry"/></mxCell><mxCell id="SCQiJlnIaPqGDtUvYULp-42" value="" style="line;strokeWidth=1;fillColor=none;align=left;verticalAlign=middle;spacingTop=-1;spacingLeft=3;spacingRight=3;rotatable=0;labelPosition=right;points=[];portConstraint=eastwest;" parent="SCQiJlnIaPqGDtUvYULp-40" vertex="1"><mxGeometry y="52" width="160" height="8" as="geometry"/></mxCell><mxCell id="SCQiJlnIaPqGDtUvYULp-43" value="+ append(): List&lt;CD&gt;" style="text;strokeColor=none;fillColor=none;align=left;verticalAlign=top;spacingLeft=4;spacingRight=4;overflow=hidden;rotatable=0;points=[[0,0.5],[1,0.5]];portConstraint=eastwest;" parent="SCQiJlnIaPqGDtUvYULp-40" vertex="1"><mxGeometry y="60" width="160" height="26" as="geometry"/></mxCell><mxCell id="SCQiJlnIaPqGDtUvYULp-44" value="ParserFactory" style="swimlane;fontStyle=1;align=center;verticalAlign=top;childLayout=stackLayout;horizontal=1;startSize=26;horizontalStack=0;resizeParent=1;resizeParentMax=0;resizeLast=0;collapsible=1;marginBottom=0;" parent="1" vertex="1"><mxGeometry x="426" y="320" width="170" height="86" as="geometry"/></mxCell><mxCell id="SCQiJlnIaPqGDtUvYULp-45" value="- filepath: String" style="text;strokeColor=none;fillColor=none;align=left;verticalAlign=top;spacingLeft=4;spacingRight=4;overflow=hidden;rotatable=0;points=[[0,0.5],[1,0.5]];portConstraint=eastwest;" parent="SCQiJlnIaPqGDtUvYULp-44" vertex="1"><mxGeometry y="26" width="170" height="26" as="geometry"/></mxCell><mxCell id="SCQiJlnIaPqGDtUvYULp-46" value="" style="line;strokeWidth=1;fillColor=none;align=left;verticalAlign=middle;spacingTop=-1;spacingLeft=3;spacingRight=3;rotatable=0;labelPosition=right;points=[];portConstraint=eastwest;" parent="SCQiJlnIaPqGDtUvYULp-44" vertex="1"><mxGeometry y="52" width="170" height="8" as="geometry"/></mxCell><mxCell id="SCQiJlnIaPqGDtUvYULp-47" value="+ createParser(String): Parser" style="text;strokeColor=none;fillColor=none;align=left;verticalAlign=top;spacingLeft=4;spacingRight=4;overflow=hidden;rotatable=0;points=[[0,0.5],[1,0.5]];portConstraint=eastwest;" parent="SCQiJlnIaPqGDtUvYULp-44" vertex="1"><mxGeometry y="60" width="170" height="26" as="geometry"/></mxCell><mxCell id="SCQiJlnIaPqGDtUvYULp-48" value="&lt;&lt;Interface&gt;&gt;&#10;Writer" style="swimlane;fontStyle=0;childLayout=stackLayout;horizontal=1;startSize=30;fillColor=none;horizontalStack=0;resizeParent=1;resizeParentMax=0;resizeLast=0;collapsible=1;marginBottom=0;" parent="1" vertex="1"><mxGeometry x="790" y="50" width="270" height="56" as="geometry"/></mxCell><mxCell id="SCQiJlnIaPqGDtUvYULp-49" value="+ append(String[]): void" style="text;strokeColor=none;fillColor=none;align=left;verticalAlign=top;spacingLeft=4;spacingRight=4;overflow=hidden;rotatable=0;points=[[0,0.5],[1,0.5]];portConstraint=eastwest;" parent="SCQiJlnIaPqGDtUvYULp-48" vertex="1"><mxGeometry y="30" width="270" height="26" as="geometry"/></mxCell><mxCell id="SCQiJlnIaPqGDtUvYULp-50" value="CSVWriter" style="swimlane;fontStyle=1;align=center;verticalAlign=top;childLayout=stackLayout;horizontal=1;startSize=26;horizontalStack=0;resizeParent=1;resizeParentMax=0;resizeLast=0;collapsible=1;marginBottom=0;" parent="1" vertex="1"><mxGeometry x="660" y="160" width="160" height="112" as="geometry"/></mxCell><mxCell id="SCQiJlnIaPqGDtUvYULp-51" value="- DELIMITER: char" style="text;strokeColor=none;fillColor=none;align=left;verticalAlign=top;spacingLeft=4;spacingRight=4;overflow=hidden;rotatable=0;points=[[0,0.5],[1,0.5]];portConstraint=eastwest;" parent="SCQiJlnIaPqGDtUvYULp-50" vertex="1"><mxGeometry y="26" width="160" height="26" as="geometry"/></mxCell><mxCell id="SCQiJlnIaPqGDtUvYULp-54" value="- filepath: String" style="text;strokeColor=none;fillColor=none;align=left;verticalAlign=top;spacingLeft=4;spacingRight=4;overflow=hidden;rotatable=0;points=[[0,0.5],[1,0.5]];portConstraint=eastwest;" parent="SCQiJlnIaPqGDtUvYULp-50" vertex="1"><mxGeometry y="52" width="160" height="26" as="geometry"/></mxCell><mxCell id="SCQiJlnIaPqGDtUvYULp-52" value="" style="line;strokeWidth=1;fillColor=none;align=left;verticalAlign=middle;spacingTop=-1;spacingLeft=3;spacingRight=3;rotatable=0;labelPosition=right;points=[];portConstraint=eastwest;" parent="SCQiJlnIaPqGDtUvYULp-50" vertex="1"><mxGeometry y="78" width="160" height="8" as="geometry"/></mxCell><mxCell id="SCQiJlnIaPqGDtUvYULp-53" value="+ write(String[]): void" style="text;strokeColor=none;fillColor=none;align=left;verticalAlign=top;spacingLeft=4;spacingRight=4;overflow=hidden;rotatable=0;points=[[0,0.5],[1,0.5]];portConstraint=eastwest;" parent="SCQiJlnIaPqGDtUvYULp-50" vertex="1"><mxGeometry y="86" width="160" height="26" as="geometry"/></mxCell><mxCell id="SCQiJlnIaPqGDtUvYULp-55" value="" style="endArrow=block;dashed=1;endFill=0;endSize=12;html=1;exitX=0.481;exitY=1.038;exitDx=0;exitDy=0;exitPerimeter=0;entryX=0.5;entryY=0;entryDx=0;entryDy=0;" parent="1" source="SCQiJlnIaPqGDtUvYULp-49" target="SCQiJlnIaPqGDtUvYULp-50" edge="1"><mxGeometry width="160" relative="1" as="geometry"><mxPoint x="590" y="250" as="sourcePoint"/><mxPoint x="750" y="250" as="targetPoint"/><Array as="points"><mxPoint x="920" y="120"/><mxPoint x="740" y="120"/></Array></mxGeometry></mxCell><mxCell id="SCQiJlnIaPqGDtUvYULp-56" value="XLSWriter" style="swimlane;fontStyle=1;align=center;verticalAlign=top;childLayout=stackLayout;horizontal=1;startSize=26;horizontalStack=0;resizeParent=1;resizeParentMax=0;resizeLast=0;collapsible=1;marginBottom=0;" parent="1" vertex="1"><mxGeometry x="840" y="160" width="160" height="112" as="geometry"/></mxCell><mxCell id="SCQiJlnIaPqGDtUvYULp-57" value="- DELIMITER: char" style="text;strokeColor=none;fillColor=none;align=left;verticalAlign=top;spacingLeft=4;spacingRight=4;overflow=hidden;rotatable=0;points=[[0,0.5],[1,0.5]];portConstraint=eastwest;" parent="SCQiJlnIaPqGDtUvYULp-56" vertex="1"><mxGeometry y="26" width="160" height="26" as="geometry"/></mxCell><mxCell id="SCQiJlnIaPqGDtUvYULp-58" value="- filepath: String" style="text;strokeColor=none;fillColor=none;align=left;verticalAlign=top;spacingLeft=4;spacingRight=4;overflow=hidden;rotatable=0;points=[[0,0.5],[1,0.5]];portConstraint=eastwest;" parent="SCQiJlnIaPqGDtUvYULp-56" vertex="1"><mxGeometry y="52" width="160" height="26" as="geometry"/></mxCell><mxCell id="SCQiJlnIaPqGDtUvYULp-59" value="" style="line;strokeWidth=1;fillColor=none;align=left;verticalAlign=middle;spacingTop=-1;spacingLeft=3;spacingRight=3;rotatable=0;labelPosition=right;points=[];portConstraint=eastwest;" parent="SCQiJlnIaPqGDtUvYULp-56" vertex="1"><mxGeometry y="78" width="160" height="8" as="geometry"/></mxCell><mxCell id="SCQiJlnIaPqGDtUvYULp-60" value="+ write(String[]): void" style="text;strokeColor=none;fillColor=none;align=left;verticalAlign=top;spacingLeft=4;spacingRight=4;overflow=hidden;rotatable=0;points=[[0,0.5],[1,0.5]];portConstraint=eastwest;" parent="SCQiJlnIaPqGDtUvYULp-56" vertex="1"><mxGeometry y="86" width="160" height="26" as="geometry"/></mxCell><mxCell id="SCQiJlnIaPqGDtUvYULp-62" value="" style="endArrow=block;dashed=1;endFill=0;endSize=12;html=1;exitX=0.481;exitY=1.154;exitDx=0;exitDy=0;exitPerimeter=0;entryX=0.5;entryY=0;entryDx=0;entryDy=0;" parent="1" source="SCQiJlnIaPqGDtUvYULp-49" target="SCQiJlnIaPqGDtUvYULp-56" edge="1"><mxGeometry width="160" relative="1" as="geometry"><mxPoint x="590" y="250" as="sourcePoint"/><mxPoint x="750" y="250" as="targetPoint"/></mxGeometry></mxCell><mxCell id="SCQiJlnIaPqGDtUvYULp-63" value="XLSXWriter" style="swimlane;fontStyle=1;align=center;verticalAlign=top;childLayout=stackLayout;horizontal=1;startSize=26;horizontalStack=0;resizeParent=1;resizeParentMax=0;resizeLast=0;collapsible=1;marginBottom=0;" parent="1" vertex="1"><mxGeometry x="1040" y="160" width="340" height="190" as="geometry"/></mxCell><mxCell id="SCQiJlnIaPqGDtUvYULp-64" value="- START_POINT: int" style="text;strokeColor=none;fillColor=none;align=left;verticalAlign=top;spacingLeft=4;spacingRight=4;overflow=hidden;rotatable=0;points=[[0,0.5],[1,0.5]];portConstraint=eastwest;" parent="SCQiJlnIaPqGDtUvYULp-63" vertex="1"><mxGeometry y="26" width="340" height="26" as="geometry"/></mxCell><mxCell id="SCQiJlnIaPqGDtUvYULp-65" value="- filepath: String" style="text;strokeColor=none;fillColor=none;align=left;verticalAlign=top;spacingLeft=4;spacingRight=4;overflow=hidden;rotatable=0;points=[[0,0.5],[1,0.5]];portConstraint=eastwest;" parent="SCQiJlnIaPqGDtUvYULp-63" vertex="1"><mxGeometry y="52" width="340" height="26" as="geometry"/></mxCell><mxCell id="SCQiJlnIaPqGDtUvYULp-66" value="" style="line;strokeWidth=1;fillColor=none;align=left;verticalAlign=middle;spacingTop=-1;spacingLeft=3;spacingRight=3;rotatable=0;labelPosition=right;points=[];portConstraint=eastwest;" parent="SCQiJlnIaPqGDtUvYULp-63" vertex="1"><mxGeometry y="78" width="340" height="8" as="geometry"/></mxCell><mxCell id="SCQiJlnIaPqGDtUvYULp-67" value="+ write(String[]): void" style="text;strokeColor=none;fillColor=none;align=left;verticalAlign=top;spacingLeft=4;spacingRight=4;overflow=hidden;rotatable=0;points=[[0,0.5],[1,0.5]];portConstraint=eastwest;" parent="SCQiJlnIaPqGDtUvYULp-63" vertex="1"><mxGeometry y="86" width="340" height="26" as="geometry"/></mxCell><mxCell id="SCQiJlnIaPqGDtUvYULp-71" value="- write(String[],Workbook,FileOutputStream,XSSFSheet): void" style="text;strokeColor=none;fillColor=none;align=left;verticalAlign=top;spacingLeft=4;spacingRight=4;overflow=hidden;rotatable=0;points=[[0,0.5],[1,0.5]];portConstraint=eastwest;" parent="SCQiJlnIaPqGDtUvYULp-63" vertex="1"><mxGeometry y="112" width="340" height="26" as="geometry"/></mxCell><mxCell id="SCQiJlnIaPqGDtUvYULp-69" value="- writeToCell(String[], filename): void" style="text;strokeColor=none;fillColor=none;align=left;verticalAlign=top;spacingLeft=4;spacingRight=4;overflow=hidden;rotatable=0;points=[[0,0.5],[1,0.5]];portConstraint=eastwest;" parent="SCQiJlnIaPqGDtUvYULp-63" vertex="1"><mxGeometry y="138" width="340" height="26" as="geometry"/></mxCell><mxCell id="SCQiJlnIaPqGDtUvYULp-70" value="- writeAtTheBeginning(String[], filename): void" style="text;strokeColor=none;fillColor=none;align=left;verticalAlign=top;spacingLeft=4;spacingRight=4;overflow=hidden;rotatable=0;points=[[0,0.5],[1,0.5]];portConstraint=eastwest;" parent="SCQiJlnIaPqGDtUvYULp-63" vertex="1"><mxGeometry y="164" width="340" height="26" as="geometry"/></mxCell><mxCell id="SCQiJlnIaPqGDtUvYULp-72" value="" style="endArrow=block;dashed=1;endFill=0;endSize=12;html=1;entryX=0.5;entryY=0;entryDx=0;entryDy=0;" parent="1" target="SCQiJlnIaPqGDtUvYULp-63" edge="1"><mxGeometry width="160" relative="1" as="geometry"><mxPoint x="920" y="120" as="sourcePoint"/><mxPoint x="800" y="250" as="targetPoint"/><Array as="points"><mxPoint x="1210" y="120"/></Array></mxGeometry></mxCell><mxCell id="SCQiJlnIaPqGDtUvYULp-73" value="WriterFactory" style="swimlane;fontStyle=1;align=center;verticalAlign=top;childLayout=stackLayout;horizontal=1;startSize=26;horizontalStack=0;resizeParent=1;resizeParentMax=0;resizeLast=0;collapsible=1;marginBottom=0;" parent="1" vertex="1"><mxGeometry x="830" y="474" width="170" height="86" as="geometry"/></mxCell><mxCell id="SCQiJlnIaPqGDtUvYULp-74" value="- filepath: String" style="text;strokeColor=none;fillColor=none;align=left;verticalAlign=top;spacingLeft=4;spacingRight=4;overflow=hidden;rotatable=0;points=[[0,0.5],[1,0.5]];portConstraint=eastwest;" parent="SCQiJlnIaPqGDtUvYULp-73" vertex="1"><mxGeometry y="26" width="170" height="26" as="geometry"/></mxCell><mxCell id="SCQiJlnIaPqGDtUvYULp-75" value="" style="line;strokeWidth=1;fillColor=none;align=left;verticalAlign=middle;spacingTop=-1;spacingLeft=3;spacingRight=3;rotatable=0;labelPosition=right;points=[];portConstraint=eastwest;" parent="SCQiJlnIaPqGDtUvYULp-73" vertex="1"><mxGeometry y="52" width="170" height="8" as="geometry"/></mxCell><mxCell id="SCQiJlnIaPqGDtUvYULp-76" value="+ createWriter(String): Writer" style="text;strokeColor=none;fillColor=none;align=left;verticalAlign=top;spacingLeft=4;spacingRight=4;overflow=hidden;rotatable=0;points=[[0,0.5],[1,0.5]];portConstraint=eastwest;" parent="SCQiJlnIaPqGDtUvYULp-73" vertex="1"><mxGeometry y="60" width="170" height="26" as="geometry"/></mxCell><mxCell id="SCQiJlnIaPqGDtUvYULp-77" value="Executor" style="swimlane;fontStyle=0;childLayout=stackLayout;horizontal=1;startSize=26;fillColor=none;horizontalStack=0;resizeParent=1;resizeParentMax=0;resizeLast=0;collapsible=1;marginBottom=0;" parent="1" vertex="1"><mxGeometry x="430" y="480" width="170" height="52" as="geometry"/></mxCell><mxCell id="SCQiJlnIaPqGDtUvYULp-78" value="+ execute(Parser,Writer): void" style="text;strokeColor=none;fillColor=none;align=left;verticalAlign=top;spacingLeft=4;spacingRight=4;overflow=hidden;rotatable=0;points=[[0,0.5],[1,0.5]];portConstraint=eastwest;" parent="SCQiJlnIaPqGDtUvYULp-77" vertex="1"><mxGeometry y="26" width="170" height="26" as="geometry"/></mxCell><mxCell id="SCQiJlnIaPqGDtUvYULp-81" value="Main" style="swimlane;fontStyle=1;align=center;verticalAlign=top;childLayout=stackLayout;horizontal=1;startSize=26;horizontalStack=0;resizeParent=1;resizeParentMax=0;resizeLast=0;collapsible=1;marginBottom=0;" parent="1" vertex="1"><mxGeometry x="426" y="560" width="160" height="164" as="geometry"/></mxCell><mxCell id="SCQiJlnIaPqGDtUvYULp-85" value="- CSV_FILE_PATH: String" style="text;strokeColor=none;fillColor=none;align=left;verticalAlign=top;spacingLeft=4;spacingRight=4;overflow=hidden;rotatable=0;points=[[0,0.5],[1,0.5]];portConstraint=eastwest;" parent="SCQiJlnIaPqGDtUvYULp-81" vertex="1"><mxGeometry y="26" width="160" height="26" as="geometry"/></mxCell><mxCell id="SCQiJlnIaPqGDtUvYULp-86" value="- XLS_FILE_PATH: String" style="text;strokeColor=none;fillColor=none;align=left;verticalAlign=top;spacingLeft=4;spacingRight=4;overflow=hidden;rotatable=0;points=[[0,0.5],[1,0.5]];portConstraint=eastwest;" parent="SCQiJlnIaPqGDtUvYULp-81" vertex="1"><mxGeometry y="52" width="160" height="26" as="geometry"/></mxCell><mxCell id="SCQiJlnIaPqGDtUvYULp-87" value="- XLSX_FILE_PATH: String" style="text;strokeColor=none;fillColor=none;align=left;verticalAlign=top;spacingLeft=4;spacingRight=4;overflow=hidden;rotatable=0;points=[[0,0.5],[1,0.5]];portConstraint=eastwest;" parent="SCQiJlnIaPqGDtUvYULp-81" vertex="1"><mxGeometry y="78" width="160" height="26" as="geometry"/></mxCell><mxCell id="SCQiJlnIaPqGDtUvYULp-82" value="- XML_FILE_PATH: String" style="text;strokeColor=none;fillColor=none;align=left;verticalAlign=top;spacingLeft=4;spacingRight=4;overflow=hidden;rotatable=0;points=[[0,0.5],[1,0.5]];portConstraint=eastwest;" parent="SCQiJlnIaPqGDtUvYULp-81" vertex="1"><mxGeometry y="104" width="160" height="26" as="geometry"/></mxCell><mxCell id="SCQiJlnIaPqGDtUvYULp-83" value="" style="line;strokeWidth=1;fillColor=none;align=left;verticalAlign=middle;spacingTop=-1;spacingLeft=3;spacingRight=3;rotatable=0;labelPosition=right;points=[];portConstraint=eastwest;" parent="SCQiJlnIaPqGDtUvYULp-81" vertex="1"><mxGeometry y="130" width="160" height="8" as="geometry"/></mxCell><mxCell id="SCQiJlnIaPqGDtUvYULp-84" value="+ main(String[]): void" style="text;strokeColor=none;fillColor=none;align=left;verticalAlign=top;spacingLeft=4;spacingRight=4;overflow=hidden;rotatable=0;points=[[0,0.5],[1,0.5]];portConstraint=eastwest;" parent="SCQiJlnIaPqGDtUvYULp-81" vertex="1"><mxGeometry y="138" width="160" height="26" as="geometry"/></mxCell><mxCell id="SCQiJlnIaPqGDtUvYULp-88" value="Use" style="endArrow=open;endSize=12;dashed=1;html=1;exitX=0.463;exitY=1;exitDx=0;exitDy=0;exitPerimeter=0;entryX=1;entryY=0.5;entryDx=0;entryDy=0;" parent="1" source="SCQiJlnIaPqGDtUvYULp-43" target="SCQiJlnIaPqGDtUvYULp-19" edge="1"><mxGeometry width="160" relative="1" as="geometry"><mxPoint x="640" y="420" as="sourcePoint"/><mxPoint x="800" y="420" as="targetPoint"/><Array as="points"><mxPoint x="514" y="280"/><mxPoint x="360" y="280"/><mxPoint x="360" y="411"/></Array></mxGeometry></mxCell><mxCell id="SCQiJlnIaPqGDtUvYULp-89" value="Use" style="endArrow=open;endSize=12;dashed=1;html=1;entryX=0.5;entryY=0;entryDx=0;entryDy=0;" parent="1" target="SCQiJlnIaPqGDtUvYULp-44" edge="1"><mxGeometry width="160" relative="1" as="geometry"><mxPoint x="510" y="280" as="sourcePoint"/><mxPoint x="800" y="420" as="targetPoint"/></mxGeometry></mxCell><mxCell id="SCQiJlnIaPqGDtUvYULp-90" value="Use" style="endArrow=open;endSize=12;dashed=1;html=1;exitX=0.469;exitY=1;exitDx=0;exitDy=0;exitPerimeter=0;entryX=0.5;entryY=0;entryDx=0;entryDy=0;" parent="1" source="SCQiJlnIaPqGDtUvYULp-53" target="SCQiJlnIaPqGDtUvYULp-73" edge="1"><mxGeometry x="0.7696" width="160" relative="1" as="geometry"><mxPoint x="640" y="420" as="sourcePoint"/><mxPoint x="800" y="420" as="targetPoint"/><Array as="points"><mxPoint x="735" y="400"/><mxPoint x="820" y="400"/><mxPoint x="915" y="400"/></Array><mxPoint as="offset"/></mxGeometry></mxCell><mxCell id="SCQiJlnIaPqGDtUvYULp-91" value="" style="endArrow=none;dashed=1;html=1;exitX=0.463;exitY=1.115;exitDx=0;exitDy=0;exitPerimeter=0;" parent="1" source="SCQiJlnIaPqGDtUvYULp-60" edge="1"><mxGeometry width="50" height="50" relative="1" as="geometry"><mxPoint x="690" y="450" as="sourcePoint"/><mxPoint x="914" y="400" as="targetPoint"/></mxGeometry></mxCell><mxCell id="SCQiJlnIaPqGDtUvYULp-92" value="" style="endArrow=none;dashed=1;html=1;exitX=0.488;exitY=1.154;exitDx=0;exitDy=0;exitPerimeter=0;" parent="1" source="SCQiJlnIaPqGDtUvYULp-70" edge="1"><mxGeometry width="50" height="50" relative="1" as="geometry"><mxPoint x="690" y="450" as="sourcePoint"/><mxPoint x="910" y="400" as="targetPoint"/><Array as="points"><mxPoint x="1206" y="400"/></Array></mxGeometry></mxCell></root></mxGraphModel></diagram><diagram id="EpXq_MUBpyvCsOkAf9su" name="Page-2"><mxGraphModel dx="1133" dy="713" grid="1" gridSize="10" guides="1" tooltips="1" connect="1" arrows="1" fold="1" page="1" pageScale="1" pageWidth="1700" pageHeight="1100" math="0" shadow="0"><root><mxCell id="2mOY9hHnpCSFhdUWj5eF-0"/><mxCell id="2mOY9hHnpCSFhdUWj5eF-1" parent="2mOY9hHnpCSFhdUWj5eF-0"/><mxCell id="2mOY9hHnpCSFhdUWj5eF-3" value="" style="shape=umlLifeline;participant=umlActor;perimeter=lifelinePerimeter;whiteSpace=wrap;html=1;container=1;collapsible=0;recursiveResize=0;verticalAlign=top;spacingTop=36;outlineConnect=0;" parent="2mOY9hHnpCSFhdUWj5eF-1" vertex="1"><mxGeometry x="70" y="80" width="20" height="570" as="geometry"/></mxCell><mxCell id="2mOY9hHnpCSFhdUWj5eF-7" value="ParserFactory" style="html=1;" parent="2mOY9hHnpCSFhdUWj5eF-1" vertex="1"><mxGeometry x="540" y="80" width="110" height="50" as="geometry"/></mxCell><mxCell id="2mOY9hHnpCSFhdUWj5eF-8" value="WriterFactory" style="html=1;" parent="2mOY9hHnpCSFhdUWj5eF-1" vertex="1"><mxGeometry x="400" y="80" width="110" height="50" as="geometry"/></mxCell><mxCell id="2mOY9hHnpCSFhdUWj5eF-9" value="Parser" style="html=1;" parent="2mOY9hHnpCSFhdUWj5eF-1" vertex="1"><mxGeometry x="670" y="80" width="110" height="50" as="geometry"/></mxCell><mxCell id="2mOY9hHnpCSFhdUWj5eF-10" value="Writer" style="html=1;" parent="2mOY9hHnpCSFhdUWj5eF-1" vertex="1"><mxGeometry x="810" y="80" width="110" height="50" as="geometry"/></mxCell><mxCell id="2mOY9hHnpCSFhdUWj5eF-11" value="Executor" style="html=1;" parent="2mOY9hHnpCSFhdUWj5eF-1" vertex="1"><mxGeometry x="270" y="80" width="110" height="50" as="geometry"/></mxCell><mxCell id="2mOY9hHnpCSFhdUWj5eF-13" value="" style="endArrow=none;dashed=1;html=1;entryX=0.5;entryY=1;entryDx=0;entryDy=0;" parent="2mOY9hHnpCSFhdUWj5eF-1" target="2mOY9hHnpCSFhdUWj5eF-11" edge="1"><mxGeometry width="50" height="50" relative="1" as="geometry"><mxPoint x="325" y="680" as="sourcePoint"/><mxPoint x="670" y="260" as="targetPoint"/></mxGeometry></mxCell><mxCell id="2mOY9hHnpCSFhdUWj5eF-14" value="" style="endArrow=none;dashed=1;html=1;entryX=0.5;entryY=1;entryDx=0;entryDy=0;" parent="2mOY9hHnpCSFhdUWj5eF-1" target="2mOY9hHnpCSFhdUWj5eF-7" edge="1"><mxGeometry width="50" height="50" relative="1" as="geometry"><mxPoint x="595" y="680" as="sourcePoint"/><mxPoint x="670" y="260" as="targetPoint"/></mxGeometry></mxCell><mxCell id="2mOY9hHnpCSFhdUWj5eF-15" value="" style="endArrow=none;dashed=1;html=1;entryX=0.5;entryY=1;entryDx=0;entryDy=0;" parent="2mOY9hHnpCSFhdUWj5eF-1" edge="1"><mxGeometry width="50" height="50" relative="1" as="geometry"><mxPoint x="455" y="680" as="sourcePoint"/><mxPoint x="454.5" y="130" as="targetPoint"/></mxGeometry></mxCell><mxCell id="2mOY9hHnpCSFhdUWj5eF-16" value="" style="endArrow=none;dashed=1;html=1;entryX=0.5;entryY=1;entryDx=0;entryDy=0;" parent="2mOY9hHnpCSFhdUWj5eF-1" edge="1"><mxGeometry width="50" height="50" relative="1" as="geometry"><mxPoint x="725" y="680" as="sourcePoint"/><mxPoint x="724.5799999999997" y="130" as="targetPoint"/></mxGeometry></mxCell><mxCell id="2mOY9hHnpCSFhdUWj5eF-17" value="" style="endArrow=none;dashed=1;html=1;entryX=0.5;entryY=1;entryDx=0;entryDy=0;" parent="2mOY9hHnpCSFhdUWj5eF-1" edge="1"><mxGeometry width="50" height="50" relative="1" as="geometry"><mxPoint x="865" y="690" as="sourcePoint"/><mxPoint x="864.5799999999997" y="130" as="targetPoint"/></mxGeometry></mxCell><mxCell id="l-Etprzta6ZU7H1jLDd2-0" value="Main" style="html=1;" parent="2mOY9hHnpCSFhdUWj5eF-1" vertex="1"><mxGeometry x="130" y="80" width="110" height="50" as="geometry"/></mxCell><mxCell id="l-Etprzta6ZU7H1jLDd2-1" value="" style="endArrow=none;dashed=1;html=1;entryX=0.5;entryY=1;entryDx=0;entryDy=0;" parent="2mOY9hHnpCSFhdUWj5eF-1" edge="1"><mxGeometry width="50" height="50" relative="1" as="geometry"><mxPoint x="185" y="650" as="sourcePoint"/><mxPoint x="184.5" y="130" as="targetPoint"/></mxGeometry></mxCell><mxCell id="l-Etprzta6ZU7H1jLDd2-2" value="" style="html=1;points=[];perimeter=orthogonalPerimeter;" parent="2mOY9hHnpCSFhdUWj5eF-1" vertex="1"><mxGeometry x="180" y="170" width="10" height="400" as="geometry"/></mxCell><mxCell id="l-Etprzta6ZU7H1jLDd2-3" value="" style="endArrow=classic;html=1;entryX=0.1;entryY=0.008;entryDx=0;entryDy=0;entryPerimeter=0;" parent="2mOY9hHnpCSFhdUWj5eF-1" source="2mOY9hHnpCSFhdUWj5eF-3" target="l-Etprzta6ZU7H1jLDd2-2" edge="1"><mxGeometry width="50" height="50" relative="1" as="geometry"><mxPoint x="320" y="430" as="sourcePoint"/><mxPoint x="370" y="380" as="targetPoint"/></mxGeometry></mxCell><mxCell id="l-Etprzta6ZU7H1jLDd2-4" value="main" style="edgeLabel;html=1;align=center;verticalAlign=middle;resizable=0;points=[];" parent="l-Etprzta6ZU7H1jLDd2-3" vertex="1" connectable="0"><mxGeometry x="-0.202" y="3" relative="1" as="geometry"><mxPoint x="1" as="offset"/></mxGeometry></mxCell><mxCell id="l-Etprzta6ZU7H1jLDd2-5" value="" style="endArrow=classic;html=1;exitX=1.1;exitY=0.051;exitDx=0;exitDy=0;exitPerimeter=0;" parent="2mOY9hHnpCSFhdUWj5eF-1" source="l-Etprzta6ZU7H1jLDd2-2" edge="1"><mxGeometry width="50" height="50" relative="1" as="geometry"><mxPoint x="320" y="430" as="sourcePoint"/><mxPoint x="590" y="189" as="targetPoint"/></mxGeometry></mxCell><mxCell id="l-Etprzta6ZU7H1jLDd2-6" value="&amp;lt;&amp;lt;create&amp;gt;&amp;gt;" style="edgeLabel;html=1;align=center;verticalAlign=middle;resizable=0;points=[];" parent="l-Etprzta6ZU7H1jLDd2-5" vertex="1" connectable="0"><mxGeometry x="-0.6475" y="-2" relative="1" as="geometry"><mxPoint as="offset"/></mxGeometry></mxCell><mxCell id="l-Etprzta6ZU7H1jLDd2-7" value="" style="html=1;points=[];perimeter=orthogonalPerimeter;" parent="2mOY9hHnpCSFhdUWj5eF-1" vertex="1"><mxGeometry x="590" y="190" width="10" height="30" as="geometry"/></mxCell><mxCell id="l-Etprzta6ZU7H1jLDd2-10" value="return" style="html=1;verticalAlign=bottom;endArrow=open;dashed=1;endSize=8;exitX=0.6;exitY=1.067;exitDx=0;exitDy=0;exitPerimeter=0;" parent="2mOY9hHnpCSFhdUWj5eF-1" source="l-Etprzta6ZU7H1jLDd2-7" edge="1"><mxGeometry x="0.4843" y="10" relative="1" as="geometry"><mxPoint x="390" y="410" as="sourcePoint"/><mxPoint x="192" y="220" as="targetPoint"/><mxPoint as="offset"/></mxGeometry></mxCell><mxCell id="l-Etprzta6ZU7H1jLDd2-11" value="" style="endArrow=classic;html=1;exitX=0.9;exitY=0.073;exitDx=0;exitDy=0;exitPerimeter=0;" parent="2mOY9hHnpCSFhdUWj5eF-1" edge="1"><mxGeometry width="50" height="50" relative="1" as="geometry"><mxPoint x="190" y="250.00000000000003" as="sourcePoint"/><mxPoint x="450" y="250" as="targetPoint"/></mxGeometry></mxCell><mxCell id="l-Etprzta6ZU7H1jLDd2-12" value="&amp;lt;&amp;lt;create&amp;gt;&amp;gt;" style="edgeLabel;html=1;align=center;verticalAlign=middle;resizable=0;points=[];" parent="l-Etprzta6ZU7H1jLDd2-11" vertex="1" connectable="0"><mxGeometry x="-0.6475" y="-2" relative="1" as="geometry"><mxPoint as="offset"/></mxGeometry></mxCell><mxCell id="l-Etprzta6ZU7H1jLDd2-13" value="" style="html=1;points=[];perimeter=orthogonalPerimeter;" parent="2mOY9hHnpCSFhdUWj5eF-1" vertex="1"><mxGeometry x="450" y="250" width="10" height="30" as="geometry"/></mxCell><mxCell id="l-Etprzta6ZU7H1jLDd2-14" value="return" style="html=1;verticalAlign=bottom;endArrow=open;dashed=1;endSize=8;" parent="2mOY9hHnpCSFhdUWj5eF-1" edge="1"><mxGeometry x="0.6666" y="9" relative="1" as="geometry"><mxPoint x="450" y="281" as="sourcePoint"/><mxPoint x="191" y="280" as="targetPoint"/><mxPoint as="offset"/></mxGeometry></mxCell><mxCell id="l-Etprzta6ZU7H1jLDd2-16" value="" style="endArrow=classic;html=1;exitX=0.979;exitY=0.339;exitDx=0;exitDy=0;exitPerimeter=0;" parent="2mOY9hHnpCSFhdUWj5eF-1" source="l-Etprzta6ZU7H1jLDd2-2" edge="1"><mxGeometry width="50" height="50" relative="1" as="geometry"><mxPoint x="500" y="430" as="sourcePoint"/><mxPoint x="590" y="306" as="targetPoint"/></mxGeometry></mxCell><mxCell id="l-Etprzta6ZU7H1jLDd2-17" value="createParser" style="edgeLabel;html=1;align=center;verticalAlign=middle;resizable=0;points=[];" parent="l-Etprzta6ZU7H1jLDd2-16" vertex="1" connectable="0"><mxGeometry x="-0.7093" y="-2" relative="1" as="geometry"><mxPoint as="offset"/></mxGeometry></mxCell><mxCell id="l-Etprzta6ZU7H1jLDd2-18" value="" style="html=1;points=[];perimeter=orthogonalPerimeter;" parent="2mOY9hHnpCSFhdUWj5eF-1" vertex="1"><mxGeometry x="590" y="300" width="10" height="50" as="geometry"/></mxCell><mxCell id="l-Etprzta6ZU7H1jLDd2-19" value="" style="endArrow=classic;html=1;" parent="2mOY9hHnpCSFhdUWj5eF-1" edge="1"><mxGeometry width="50" height="50" relative="1" as="geometry"><mxPoint x="601" y="310" as="sourcePoint"/><mxPoint x="720" y="310" as="targetPoint"/></mxGeometry></mxCell><mxCell id="l-Etprzta6ZU7H1jLDd2-20" value="&amp;lt;&amp;lt;create&amp;gt;&amp;gt;" style="edgeLabel;html=1;align=center;verticalAlign=middle;resizable=0;points=[];" parent="l-Etprzta6ZU7H1jLDd2-19" vertex="1" connectable="0"><mxGeometry x="0.2269" relative="1" as="geometry"><mxPoint as="offset"/></mxGeometry></mxCell><mxCell id="l-Etprzta6ZU7H1jLDd2-21" value="return" style="html=1;verticalAlign=bottom;endArrow=open;dashed=1;endSize=8;" parent="2mOY9hHnpCSFhdUWj5eF-1" edge="1"><mxGeometry relative="1" as="geometry"><mxPoint x="720" y="340" as="sourcePoint"/><mxPoint x="599" y="340" as="targetPoint"/><Array as="points"/></mxGeometry></mxCell><mxCell id="l-Etprzta6ZU7H1jLDd2-22" value="return" style="html=1;verticalAlign=bottom;endArrow=open;dashed=1;endSize=8;" parent="2mOY9hHnpCSFhdUWj5eF-1" edge="1"><mxGeometry relative="1" as="geometry"><mxPoint x="593" y="349" as="sourcePoint"/><mxPoint x="192" y="349" as="targetPoint"/></mxGeometry></mxCell><mxCell id="l-Etprzta6ZU7H1jLDd2-23" value="" style="html=1;points=[];perimeter=orthogonalPerimeter;" parent="2mOY9hHnpCSFhdUWj5eF-1" vertex="1"><mxGeometry x="450" y="370" width="10" height="50" as="geometry"/></mxCell><mxCell id="l-Etprzta6ZU7H1jLDd2-24" value="" style="endArrow=classic;html=1;entryX=0;entryY=0.06;entryDx=0;entryDy=0;entryPerimeter=0;" parent="2mOY9hHnpCSFhdUWj5eF-1" target="l-Etprzta6ZU7H1jLDd2-23" edge="1"><mxGeometry width="50" height="50" relative="1" as="geometry"><mxPoint x="192" y="373" as="sourcePoint"/><mxPoint x="550" y="380" as="targetPoint"/></mxGeometry></mxCell><mxCell id="l-Etprzta6ZU7H1jLDd2-25" value="" style="endArrow=classic;html=1;" parent="2mOY9hHnpCSFhdUWj5eF-1" edge="1"><mxGeometry width="50" height="50" relative="1" as="geometry"><mxPoint x="461" y="390" as="sourcePoint"/><mxPoint x="860" y="390" as="targetPoint"/></mxGeometry></mxCell><mxCell id="l-Etprzta6ZU7H1jLDd2-32" value="createWriter" style="edgeLabel;html=1;align=center;verticalAlign=middle;resizable=0;points=[];" parent="l-Etprzta6ZU7H1jLDd2-25" vertex="1" connectable="0"><mxGeometry x="-0.0677" y="1" relative="1" as="geometry"><mxPoint x="3" y="-9" as="offset"/></mxGeometry></mxCell><mxCell id="l-Etprzta6ZU7H1jLDd2-27" value="" style="html=1;points=[];perimeter=orthogonalPerimeter;" parent="2mOY9hHnpCSFhdUWj5eF-1" vertex="1"><mxGeometry x="720" y="310" width="10" height="30" as="geometry"/></mxCell><mxCell id="l-Etprzta6ZU7H1jLDd2-28" value="" style="html=1;points=[];perimeter=orthogonalPerimeter;" parent="2mOY9hHnpCSFhdUWj5eF-1" vertex="1"><mxGeometry x="860" y="390" width="10" height="30" as="geometry"/></mxCell><mxCell id="l-Etprzta6ZU7H1jLDd2-30" value="return" style="html=1;verticalAlign=bottom;endArrow=open;dashed=1;endSize=8;entryX=1.3;entryY=0.74;entryDx=0;entryDy=0;entryPerimeter=0;" parent="2mOY9hHnpCSFhdUWj5eF-1" source="l-Etprzta6ZU7H1jLDd2-28" target="l-Etprzta6ZU7H1jLDd2-23" edge="1"><mxGeometry relative="1" as="geometry"><mxPoint x="570" y="410" as="sourcePoint"/><mxPoint x="490" y="410" as="targetPoint"/></mxGeometry></mxCell><mxCell id="l-Etprzta6ZU7H1jLDd2-31" value="return" style="html=1;verticalAlign=bottom;endArrow=open;dashed=1;endSize=8;exitX=0.2;exitY=0.98;exitDx=0;exitDy=0;exitPerimeter=0;" parent="2mOY9hHnpCSFhdUWj5eF-1" source="l-Etprzta6ZU7H1jLDd2-23" edge="1"><mxGeometry relative="1" as="geometry"><mxPoint x="570" y="410" as="sourcePoint"/><mxPoint x="193" y="420" as="targetPoint"/></mxGeometry></mxCell><mxCell id="l-Etprzta6ZU7H1jLDd2-33" value="" style="html=1;points=[];perimeter=orthogonalPerimeter;" parent="2mOY9hHnpCSFhdUWj5eF-1" vertex="1"><mxGeometry x="320" y="450" width="10" height="110" as="geometry"/></mxCell><mxCell id="l-Etprzta6ZU7H1jLDd2-34" value="" style="endArrow=classic;html=1;entryX=-0.3;entryY=-0.012;entryDx=0;entryDy=0;entryPerimeter=0;" parent="2mOY9hHnpCSFhdUWj5eF-1" source="l-Etprzta6ZU7H1jLDd2-2" target="l-Etprzta6ZU7H1jLDd2-33" edge="1"><mxGeometry width="50" height="50" relative="1" as="geometry"><mxPoint x="500" y="430" as="sourcePoint"/><mxPoint x="550" y="380" as="targetPoint"/></mxGeometry></mxCell><mxCell id="l-Etprzta6ZU7H1jLDd2-35" value="execute" style="edgeLabel;html=1;align=center;verticalAlign=middle;resizable=0;points=[];" parent="l-Etprzta6ZU7H1jLDd2-34" vertex="1" connectable="0"><mxGeometry x="-0.2756" relative="1" as="geometry"><mxPoint as="offset"/></mxGeometry></mxCell><mxCell id="l-Etprzta6ZU7H1jLDd2-36" value="" style="html=1;points=[];perimeter=orthogonalPerimeter;" parent="2mOY9hHnpCSFhdUWj5eF-1" vertex="1"><mxGeometry x="720" y="450" width="10" height="30" as="geometry"/></mxCell><mxCell id="l-Etprzta6ZU7H1jLDd2-37" value="" style="html=1;points=[];perimeter=orthogonalPerimeter;" parent="2mOY9hHnpCSFhdUWj5eF-1" vertex="1"><mxGeometry x="860" y="500" width="10" height="30" as="geometry"/></mxCell><mxCell id="l-Etprzta6ZU7H1jLDd2-38" value="" style="endArrow=classic;html=1;exitX=1.2;exitY=0.075;exitDx=0;exitDy=0;exitPerimeter=0;entryX=-0.2;entryY=0.2;entryDx=0;entryDy=0;entryPerimeter=0;" parent="2mOY9hHnpCSFhdUWj5eF-1" source="l-Etprzta6ZU7H1jLDd2-33" target="l-Etprzta6ZU7H1jLDd2-36" edge="1"><mxGeometry width="50" height="50" relative="1" as="geometry"><mxPoint x="500" y="430" as="sourcePoint"/><mxPoint x="550" y="380" as="targetPoint"/></mxGeometry></mxCell><mxCell id="l-Etprzta6ZU7H1jLDd2-39" value="append" style="edgeLabel;html=1;align=center;verticalAlign=middle;resizable=0;points=[];" parent="l-Etprzta6ZU7H1jLDd2-38" vertex="1" connectable="0"><mxGeometry x="-0.8187" y="-3" relative="1" as="geometry"><mxPoint y="-9" as="offset"/></mxGeometry></mxCell><mxCell id="l-Etprzta6ZU7H1jLDd2-40" value="return" style="html=1;verticalAlign=bottom;endArrow=open;dashed=1;endSize=8;entryX=1;entryY=0.255;entryDx=0;entryDy=0;entryPerimeter=0;" parent="2mOY9hHnpCSFhdUWj5eF-1" target="l-Etprzta6ZU7H1jLDd2-33" edge="1"><mxGeometry x="0.7" relative="1" as="geometry"><mxPoint x="730" y="480" as="sourcePoint"/><mxPoint x="650" y="480" as="targetPoint"/><mxPoint as="offset"/></mxGeometry></mxCell><mxCell id="l-Etprzta6ZU7H1jLDd2-41" value="" style="endArrow=classic;html=1;exitX=0.9;exitY=0.409;exitDx=0;exitDy=0;exitPerimeter=0;" parent="2mOY9hHnpCSFhdUWj5eF-1" source="l-Etprzta6ZU7H1jLDd2-33" edge="1"><mxGeometry width="50" height="50" relative="1" as="geometry"><mxPoint x="500" y="430" as="sourcePoint"/><mxPoint x="859" y="498" as="targetPoint"/></mxGeometry></mxCell><mxCell id="l-Etprzta6ZU7H1jLDd2-42" value="return" style="html=1;verticalAlign=bottom;endArrow=open;dashed=1;endSize=8;exitX=0.2;exitY=0.933;exitDx=0;exitDy=0;exitPerimeter=0;entryX=1.3;entryY=0.7;entryDx=0;entryDy=0;entryPerimeter=0;" parent="2mOY9hHnpCSFhdUWj5eF-1" source="l-Etprzta6ZU7H1jLDd2-37" target="l-Etprzta6ZU7H1jLDd2-33" edge="1"><mxGeometry relative="1" as="geometry"><mxPoint x="570" y="410" as="sourcePoint"/><mxPoint x="490" y="410" as="targetPoint"/></mxGeometry></mxCell><mxCell id="l-Etprzta6ZU7H1jLDd2-43" value="return" style="html=1;verticalAlign=bottom;endArrow=open;dashed=1;endSize=8;exitX=-0.055;exitY=0.886;exitDx=0;exitDy=0;exitPerimeter=0;entryX=1.255;entryY=0.942;entryDx=0;entryDy=0;entryPerimeter=0;" parent="2mOY9hHnpCSFhdUWj5eF-1" source="l-Etprzta6ZU7H1jLDd2-33" target="l-Etprzta6ZU7H1jLDd2-2" edge="1"><mxGeometry relative="1" as="geometry"><mxPoint x="380" y="360" as="sourcePoint"/><mxPoint x="300" y="360" as="targetPoint"/></mxGeometry></mxCell></root></mxGraphModel></diagram></mxfile>